# xmcd
#
# Track frame offsets:
#	150
#	18905
#	30005
#	44585
#	61065
#	77895
#	91685
#	107940
#	123922
#	139500
#
# Disc length: 2077 seconds
#
# Revision: 0
# Processed by: cddbd v1.5.2PL0 Copyright (c) Steve Scherf et al.
# Submitted via: dBpowerAMP V4.0
#
DISCID=6f081b0a
DTITLE=Juice Newtown - Spurs And Lassos
DYEAR=1900
DGENRE=Country
TTITLE0=You Make Me Want To Make You Mine
TTITLE1=When Love Comes Around The Bend
TTITLE2=Tell Me True
TTITLE3=First Time Caller
TTITLE4=Hurt
TTITLE5=Old Flame
TTITLE6=What Can I Do With My Heart
TTITLE7=Cheap Love
TTITLE8=One Touch
TTITLE9=With You
EXTD=
EXTT0=
EXTT1=
EXTT2=
EXTT3=
EXTT4=
EXTT5=
EXTT6=
EXTT7=
EXTT8=
EXTT9=
PLAYORDER=
